# xmcd
# 
# Track frame offsets:
#     150
#     8197
#     22515
#     38511
#     56200
#     71262
#     91892
#     115747
#     127650
#     146372
#     163126
#     186336
#     204901
#     252049
# 
# Disc length: 3379
# 
# Revision: 5
# Processed by: cddbd v1.5.2PL0 Copyright (c) Steve Scherf et al.
# Submitted via: fre:ac v1.1beta1pre5
# 
DISCID=a60d310e
DTITLE=Metalium - Millennium Metal - Chapter One
DYEAR=1999
DGENRE=Metal
TTITLE0=Circle of Fate
TTITLE1=Fight
TTITLE2=Dream of Doom
TTITLE3=Break the Spell
TTITLE4=Revelation
TTITLE5=Metalium
TTITLE6=Metamorphosis
TTITLE7=Void of Fire
TTITLE8=Free Forever
TTITLE9=Strike Down the Heathen
TTITLE10=Pilgrimage
TTITLE11=Metalians
TTITLE12=Smoke on the Water
TTITLE13=DATA
EXTD=
EXTT0=
EXTT1=
EXTT2=
EXTT3=
EXTT4=
EXTT5=
EXTT6=
EXTT7=
EXTT8=
EXTT9=
EXTT10=
EXTT11=
EXTT12=
EXTT13=
PLAYORDER=
